<svg width="172" height="18" viewBox="0 0 172 18" fill="none" xmlns="http://www.w3.org/2000/svg">
<path d="M10.7813 0.238813H14.4716V11.574C14.4716 12.8468 14.1676 13.9604 13.5597 14.915C12.9574 15.8695 12.1137 16.6138 11.0284 17.1479C9.9432 17.6763 8.67899 17.9405 7.23581 17.9405C5.78695 17.9405 4.5199 17.6763 3.43468 17.1479C2.34945 16.6138 1.5057 15.8695 0.903426 14.915C0.301153 13.9604 1.66297e-05 12.8468 1.66297e-05 11.574V0.238813H3.69036V11.2587C3.69036 11.9235 3.83524 12.5144 4.12502 13.0314C4.42047 13.5485 4.83524 13.9547 5.36933 14.2502C5.90343 14.5456 6.52558 14.6934 7.23581 14.6934C7.95172 14.6934 8.57388 14.5456 9.10229 14.2502C9.63638 13.9547 10.0483 13.5485 10.3381 13.0314C10.6335 12.5144 10.7813 11.9235 10.7813 11.2587V0.238813ZM32.1073 0.238813V17.6934H28.9198L21.326 6.70756H21.1982V17.6934H17.5078V0.238813H20.7465L28.2806 11.2161H28.434V0.238813H32.1073ZM38.8466 0.238813V17.6934H35.1563V0.238813H38.8466ZM41.8828 17.6934V0.238813H53.4396V3.28143H45.5732V7.44052H52.6726V10.4831H45.5732V17.6934H41.8828ZM54.8992 0.238813H59.0327L63.0128 7.75586H63.1833L67.1634 0.238813H71.2969L64.9304 11.5229V17.6934H61.2656V11.5229L54.8992 0.238813ZM94.2678 6.34961H90.5348C90.4666 5.86665 90.3274 5.43768 90.1172 5.06268C89.907 4.68199 89.6371 4.35813 89.3075 4.09109C88.978 3.82404 88.5973 3.61949 88.1655 3.47745C87.7394 3.3354 87.2763 3.26438 86.7763 3.26438C85.8729 3.26438 85.086 3.48881 84.4155 3.93768C83.745 4.38086 83.2252 5.02859 82.8558 5.88086C82.4865 6.72745 82.3019 7.75586 82.3019 8.96609C82.3019 10.2104 82.4865 11.2559 82.8558 12.1025C83.2308 12.949 83.7536 13.5882 84.424 14.0201C85.0945 14.4519 85.87 14.6678 86.7507 14.6678C87.245 14.6678 87.7024 14.6025 88.1229 14.4718C88.549 14.3411 88.9269 14.1507 89.2564 13.9007C89.586 13.6451 89.8587 13.3354 90.0746 12.9718C90.2962 12.6081 90.4496 12.1934 90.5348 11.7275L94.2678 11.7445C94.1712 12.5456 93.9297 13.3184 93.5433 14.0627C93.1627 14.8013 92.6485 15.4632 92.0007 16.0485C91.3587 16.628 90.5916 17.0882 89.6996 17.4292C88.8132 17.7644 87.8104 17.932 86.6911 17.932C85.1342 17.932 83.7422 17.5797 82.5149 16.8752C81.2933 16.1706 80.3274 15.1507 79.6172 13.8155C78.9127 12.4803 78.5604 10.8638 78.5604 8.96609C78.5604 7.06268 78.9183 5.44336 79.6342 4.10813C80.3502 2.7729 81.3217 1.75586 82.549 1.057C83.7763 0.35245 85.157 0.000176907 86.6911 0.000176907C87.7024 0.000176907 88.6399 0.142222 89.5036 0.426313C90.3729 0.710404 91.1428 1.12518 91.8132 1.67063C92.4837 2.2104 93.0291 2.87234 93.4496 3.65643C93.8757 4.44052 94.1485 5.33825 94.2678 6.34961ZM96.9141 0.238813H101.465L106.272 11.9661H106.477L111.283 0.238813H115.835V17.6934H112.255V6.33256H112.11L107.593 17.6081H105.156L100.639 6.28995H100.494V17.6934H96.9141V0.238813ZM128.344 5.2587C128.276 4.5712 127.983 4.03711 127.466 3.65643C126.949 3.27574 126.247 3.0854 125.361 3.0854C124.759 3.0854 124.25 3.17063 123.835 3.34109C123.42 3.50586 123.102 3.73597 122.881 4.03143C122.665 4.32688 122.557 4.66211 122.557 5.03711C122.545 5.34961 122.611 5.62234 122.753 5.85529C122.901 6.08825 123.102 6.28995 123.358 6.4604C123.614 6.62518 123.909 6.77006 124.244 6.89506C124.58 7.01438 124.938 7.11665 125.318 7.20188L126.886 7.57688C127.648 7.74734 128.347 7.97461 128.983 8.2587C129.619 8.54279 130.17 8.89222 130.636 9.307C131.102 9.72177 131.463 10.2104 131.719 10.7729C131.98 11.3354 132.114 11.9803 132.119 12.7076C132.114 13.7757 131.841 14.7019 131.301 15.486C130.767 16.2644 129.994 16.8695 128.983 17.3013C127.977 17.7275 126.764 17.9405 125.344 17.9405C123.935 17.9405 122.707 17.7246 121.662 17.2928C120.622 16.861 119.81 16.2218 119.224 15.3752C118.645 14.5229 118.341 13.4689 118.313 12.2132H121.884C121.923 12.7985 122.091 13.2871 122.386 13.6792C122.688 14.0655 123.088 14.3581 123.588 14.557C124.094 14.7502 124.665 14.8468 125.301 14.8468C125.926 14.8468 126.469 14.7559 126.929 14.574C127.395 14.3922 127.756 14.1394 128.011 13.8155C128.267 13.4917 128.395 13.1195 128.395 12.699C128.395 12.307 128.278 11.9775 128.045 11.7104C127.818 11.4434 127.483 11.2161 127.04 11.0286C126.602 10.8411 126.065 10.6706 125.429 10.5172L123.528 10.0399C122.057 9.682 120.895 9.12234 120.043 8.36097C119.19 7.59961 118.767 6.57404 118.773 5.28427C118.767 4.22745 119.048 3.30415 119.616 2.51438C120.19 1.72461 120.977 1.10813 121.977 0.66495C122.977 0.221768 124.114 0.000176907 125.386 0.000176907C126.682 0.000176907 127.813 0.221768 128.778 0.66495C129.75 1.10813 130.506 1.72461 131.045 2.51438C131.585 3.30415 131.864 4.21893 131.881 5.2587H128.344ZM143.31 0.238813L147.528 13.5002H147.69L151.918 0.238813H156.009L149.991 17.6934H145.236L139.21 0.238813H143.31ZM164.706 17.932C163.808 17.9263 162.942 17.7757 162.107 17.4803C161.277 17.1848 160.533 16.7047 159.874 16.04C159.215 15.3752 158.692 14.4945 158.305 13.3979C157.925 12.3013 157.734 10.9547 157.734 9.35813C157.74 7.89222 157.908 6.58256 158.237 5.42915C158.572 4.27006 159.05 3.28711 159.669 2.48029C160.294 1.67347 161.041 1.05984 161.911 0.639381C162.78 0.213245 163.754 0.000176907 164.834 0.000176907C165.999 0.000176907 167.027 0.22745 167.919 0.681996C168.811 1.13086 169.527 1.74165 170.067 2.51438C170.612 3.28711 170.942 4.15359 171.055 5.11381H167.416C167.274 4.50586 166.976 4.02859 166.521 3.682C166.067 3.3354 165.504 3.16211 164.834 3.16211C163.697 3.16211 162.834 3.65643 162.243 4.64506C161.658 5.6337 161.359 6.97745 161.348 8.67631H161.467C161.729 8.15927 162.081 7.71893 162.524 7.35529C162.973 6.98597 163.482 6.70472 164.05 6.51154C164.624 6.31268 165.229 6.21325 165.865 6.21325C166.899 6.21325 167.82 6.45756 168.626 6.9462C169.433 7.42915 170.07 8.09393 170.536 8.94052C171.001 9.78711 171.234 10.7559 171.234 11.8468C171.234 13.0286 170.959 14.0797 170.408 15.0002C169.862 15.9206 169.098 16.6422 168.115 17.165C167.138 17.682 166.001 17.9377 164.706 17.932ZM164.689 15.0343C165.257 15.0343 165.766 14.8979 166.215 14.6252C166.663 14.3525 167.016 13.9831 167.271 13.5172C167.527 13.0513 167.655 12.5286 167.655 11.949C167.655 11.3695 167.527 10.8496 167.271 10.3894C167.021 9.92915 166.675 9.56268 166.232 9.28995C165.788 9.01722 165.283 8.88086 164.715 8.88086C164.288 8.88086 163.893 8.9604 163.53 9.1195C163.172 9.27859 162.857 9.50018 162.584 9.78427C162.317 10.0684 162.107 10.3979 161.953 10.7729C161.8 11.1422 161.723 11.5371 161.723 11.9576C161.723 12.5201 161.851 13.0343 162.107 13.5002C162.368 13.9661 162.72 14.3382 163.163 14.6167C163.612 14.8951 164.121 15.0343 164.689 15.0343Z" fill="black"/>
</svg>
