<svg width="173" height="18" viewBox="0 0 173 18" fill="none" xmlns="http://www.w3.org/2000/svg">
<path d="M10.5597 0.238638H14.7699V11.4972C14.7699 12.7983 14.4602 13.9318 13.8409 14.8977C13.2216 15.858 12.358 16.6023 11.25 17.1307C10.142 17.6534 8.85511 17.9148 7.38921 17.9148C5.90625 17.9148 4.6108 17.6534 3.50284 17.1307C2.39489 16.6023 1.53409 15.858 0.920455 14.8977C0.306819 13.9318 7.7486e-07 12.7983 7.7486e-07 11.4972V0.238638H4.21875V11.1307C4.21875 11.733 4.34943 12.2699 4.6108 12.7415C4.87784 13.2131 5.25 13.5824 5.72727 13.8494C6.20455 14.1165 6.75852 14.25 7.38921 14.25C8.01989 14.25 8.57102 14.1165 9.04261 13.8494C9.51989 13.5824 9.89205 13.2131 10.1591 12.7415C10.4261 12.2699 10.5597 11.733 10.5597 11.1307V0.238638ZM32.2692 0.238638V17.6932H28.6896L21.7436 7.61932H21.6328V17.6932H17.4141V0.238638H21.0447L27.9141 10.2955H28.0589V0.238638H32.2692ZM39.1406 0.238638V17.6932H34.9219V0.238638H39.1406ZM41.7891 17.6932V0.238638H53.7038V3.66477H46.0078V7.24432H52.9453V10.679H46.0078V17.6932H41.7891ZM54.9588 0.238638H59.6719L63.3622 7.54262H63.5156L67.206 0.238638H71.919L65.5355 11.8636V17.6932H61.3423V11.8636L54.9588 0.238638ZM94.6875 6.5625H90.4261C90.3693 6.125 90.2528 5.73011 90.0767 5.37784C89.9006 5.02557 89.6676 4.72443 89.3778 4.47443C89.0881 4.22443 88.7443 4.03409 88.3466 3.90341C87.9545 3.76705 87.5199 3.69886 87.0426 3.69886C86.196 3.69886 85.4659 3.90625 84.8523 4.32102C84.2443 4.7358 83.7756 5.33523 83.446 6.11932C83.1222 6.90341 82.9602 7.85227 82.9602 8.96591C82.9602 10.125 83.125 11.0966 83.4545 11.8807C83.7898 12.6591 84.2585 13.2472 84.8608 13.6449C85.4688 14.0369 86.1875 14.233 87.017 14.233C87.483 14.233 87.9063 14.1733 88.2869 14.054C88.6733 13.9347 89.0114 13.7614 89.3011 13.5341C89.5966 13.3011 89.8381 13.0199 90.0256 12.6903C90.2188 12.3551 90.3523 11.9773 90.4261 11.5568L94.6875 11.5824C94.6136 12.3551 94.3892 13.1165 94.0142 13.8665C93.6449 14.6165 93.1364 15.3011 92.4886 15.9205C91.8409 16.5341 91.0511 17.0227 90.1193 17.3864C89.1932 17.75 88.1307 17.9318 86.9318 17.9318C85.3523 17.9318 83.9375 17.5852 82.6875 16.892C81.4432 16.1932 80.4602 15.1761 79.7386 13.8409C79.017 12.5057 78.6563 10.8807 78.6563 8.96591C78.6563 7.04546 79.0227 5.41762 79.7557 4.08239C80.4886 2.74716 81.4801 1.73296 82.7301 1.03977C83.9801 0.346592 85.3807 1.43051e-06 86.9318 1.43051e-06C87.9886 1.43051e-06 88.9659 0.147729 89.8636 0.443184C90.7614 0.732956 91.5511 1.15909 92.233 1.72159C92.9148 2.27841 93.4688 2.96307 93.8949 3.77557C94.321 4.58807 94.5852 5.51705 94.6875 6.5625ZM97.1016 0.238638H102.326L106.758 11.0455H106.962L111.394 0.238638H116.619V17.6932H112.511V6.97159H112.366L108.173 17.5824H105.548L101.354 6.91193H101.21V17.6932H97.1016V0.238638ZM128.685 5.47159C128.628 4.84659 128.375 4.3608 127.926 4.01421C127.483 3.66193 126.849 3.4858 126.026 3.4858C125.48 3.4858 125.026 3.55682 124.662 3.69886C124.298 3.84091 124.026 4.03693 123.844 4.28693C123.662 4.53125 123.568 4.8125 123.563 5.13068C123.551 5.39205 123.602 5.62216 123.716 5.82102C123.835 6.01989 124.006 6.19602 124.227 6.34943C124.455 6.49716 124.727 6.62784 125.045 6.74148C125.364 6.85512 125.722 6.95455 126.119 7.03977L127.619 7.38068C128.483 7.56818 129.244 7.81818 129.903 8.13068C130.568 8.44318 131.125 8.81534 131.574 9.24716C132.028 9.67898 132.372 10.1761 132.605 10.7386C132.838 11.3011 132.957 11.9318 132.963 12.6307C132.957 13.733 132.679 14.679 132.128 15.4688C131.577 16.2585 130.784 16.8636 129.75 17.2841C128.722 17.7045 127.48 17.9148 126.026 17.9148C124.565 17.9148 123.293 17.696 122.207 17.2585C121.122 16.821 120.278 16.1563 119.676 15.2642C119.074 14.3722 118.764 13.2443 118.747 11.8807H122.787C122.821 12.4432 122.972 12.9119 123.239 13.2869C123.506 13.6619 123.872 13.946 124.338 14.1392C124.81 14.3324 125.355 14.429 125.974 14.429C126.543 14.429 127.026 14.3523 127.423 14.1989C127.827 14.0455 128.136 13.8324 128.352 13.5597C128.568 13.2869 128.679 12.9744 128.685 12.6222C128.679 12.2926 128.577 12.0114 128.378 11.7784C128.179 11.5398 127.872 11.3352 127.457 11.1648C127.048 10.9886 126.526 10.8267 125.889 10.679L124.065 10.2528C122.554 9.90625 121.364 9.34659 120.494 8.57387C119.625 7.79546 119.193 6.74432 119.199 5.42046C119.193 4.34091 119.483 3.39489 120.068 2.58239C120.653 1.76989 121.463 1.13637 122.497 0.68182C123.531 0.227274 124.71 1.43051e-06 126.034 1.43051e-06C127.386 1.43051e-06 128.56 0.230115 129.554 0.690342C130.554 1.14489 131.33 1.78409 131.881 2.60796C132.432 3.43182 132.713 4.38636 132.724 5.47159H128.685ZM144.213 0.238638L148.116 13.0227H148.261L152.165 0.238638H156.886L150.997 17.6932H145.381L139.491 0.238638H144.213ZM165.729 17.9318C164.774 17.9318 163.859 17.7784 162.984 17.4716C162.109 17.1591 161.331 16.6648 160.649 15.9886C159.967 15.3068 159.43 14.4148 159.038 13.3125C158.646 12.2045 158.453 10.8551 158.459 9.26421C158.464 7.82671 158.641 6.53693 158.987 5.39489C159.334 4.24716 159.828 3.27273 160.47 2.47159C161.118 1.67046 161.891 1.05966 162.788 0.639205C163.692 0.213069 164.7 1.43051e-06 165.814 1.43051e-06C167.036 1.43051e-06 168.112 0.238638 169.044 0.715911C169.982 1.1875 170.732 1.82387 171.294 2.625C171.857 3.42046 172.189 4.30682 172.291 5.28409H168.141C168.016 4.73296 167.74 4.31534 167.314 4.03125C166.893 3.74148 166.393 3.59659 165.814 3.59659C164.746 3.59659 163.947 4.05966 163.419 4.9858C162.896 5.91193 162.629 7.15057 162.618 8.70171H162.729C162.967 8.17898 163.311 7.73012 163.76 7.35512C164.209 6.98012 164.723 6.69318 165.303 6.49432C165.888 6.28977 166.507 6.1875 167.161 6.1875C168.206 6.1875 169.129 6.42898 169.93 6.91193C170.732 7.39489 171.359 8.05682 171.814 8.89773C172.268 9.73296 172.493 10.6903 172.487 11.7699C172.493 12.9858 172.209 14.0597 171.635 14.9915C171.061 15.9176 170.266 16.6392 169.249 17.1563C168.237 17.6733 167.064 17.9318 165.729 17.9318ZM165.703 14.6932C166.22 14.6932 166.683 14.571 167.092 14.3267C167.501 14.0824 167.822 13.75 168.055 13.3295C168.288 12.9091 168.402 12.4347 168.396 11.9063C168.402 11.3722 168.288 10.8977 168.055 10.483C167.828 10.0682 167.51 9.73864 167.101 9.49432C166.697 9.25 166.234 9.12784 165.712 9.12784C165.331 9.12784 164.976 9.19887 164.646 9.34091C164.317 9.48296 164.03 9.68182 163.786 9.9375C163.547 10.1875 163.359 10.483 163.223 10.8239C163.087 11.1591 163.016 11.5227 163.01 11.9148C163.016 12.4318 163.135 12.9006 163.368 13.321C163.601 13.7415 163.919 14.0767 164.322 14.3267C164.726 14.571 165.186 14.6932 165.703 14.6932Z" fill="black"/>
</svg>
